<svg width="22" height="24" viewBox="0 0 22 24" fill="none" xmlns="http://www.w3.org/2000/svg">
<path d="M11.4263 3.43075C11.6539 4.08231 12.1891 4.61396 12.9068 4.80508C13.6244 4.99794 14.3525 4.80507 14.8755 4.35506C15.1935 4.08228 15.4351 3.71394 15.5515 3.27957C15.6488 2.91296 15.647 2.54462 15.5619 2.2006C15.3777 1.46391 14.8095 0.845365 14.0241 0.633392C13.2387 0.423157 12.4359 0.675073 11.9094 1.22238C6.80415 0.779322 1.96131 4.04409 0.588571 9.16618C-0.262878 12.3406 0.399167 15.5653 2.12987 18.0742C2.50569 18.6175 2.93036 19.1278 3.40183 19.597C3.54178 19.7363 3.77384 19.7011 3.87258 19.5301L8.65996 11.2407L13.6854 16.2657C13.6978 16.2781 13.7133 16.287 13.7303 16.2914C13.7734 16.3028 13.8189 16.2839 13.8412 16.2452L18.5767 8.04547C19.5168 9.86461 19.807 12.0278 19.2336 14.1631C18.1666 18.1437 14.455 20.7082 10.4967 20.4737C10.2516 19.8673 9.73383 19.3773 9.05267 19.1949C8.37151 19.0125 7.67818 19.1758 7.1621 19.5806C6.80588 19.8586 6.53307 20.2513 6.40622 20.7221C6.31934 21.047 6.31065 21.3737 6.36973 21.683C6.51917 22.4718 7.1065 23.1442 7.93362 23.3649C8.76074 23.5873 9.6035 23.2971 10.1283 22.689C15.2126 23.1042 20.0259 19.8447 21.3935 14.7417C22.2449 11.5656 21.5829 8.34258 19.8522 5.83366C19.4764 5.29039 19.0517 4.78008 18.5802 4.31092C18.4403 4.17164 18.2082 4.20684 18.1095 4.37785L17.1466 6.04563L13.296 12.7141L8.46396 7.88254C8.32087 7.73946 8.08101 7.77104 7.97983 7.94628L3.40704 15.8659C2.46697 14.045 2.17678 11.8836 2.75021 9.74821C3.81017 5.78849 7.49052 3.22917 11.4263 3.43419V3.43075ZM12.667 2.50466C12.7851 2.06334 13.2387 1.80096 13.68 1.91911C14.1214 2.03726 14.3838 2.49249 14.2656 2.93208C14.1475 3.3734 13.6939 3.63578 13.2526 3.51763C12.8112 3.39948 12.5488 2.94424 12.667 2.50466ZM9.29246 21.4936C9.1743 21.9349 8.72077 22.1955 8.27941 22.0791C7.83805 21.961 7.57566 21.5075 7.69382 21.0662C7.81198 20.6249 8.26551 20.3625 8.70687 20.4806C9.14824 20.5988 9.41062 21.0523 9.29246 21.4936Z" fill="white"/>
</svg>
